<svg xmlns:rdf="http://www.w3.org/1999/02/22-rdf-syntax-ns#" xmlns:cc="http://creativecommons.org/ns#" xmlns:svg="http://www.w3.org/2000/svg" xmlns:dc="http://purl.org/dc/elements/1.1/" xmlns="http://www.w3.org/2000/svg" xmlns:xlink="http://www.w3.org/1999/xlink" version="1.1" id="svg6584" x="0px" y="0px" width="100px" height="100px" viewBox="0 0 100 100" enable-background="new 0 0 100 100" xml:space="preserve">
<path fill="#A3ACB6" d="M78.529,8.755c-1.009-0.707-2.274-0.892-3.433-0.483L32.979,23.024c-1.512,0.538-2.527,1.955-2.527,3.563  V66.04c-1.695-0.788-3.561-1.279-5.55-1.279c-7.219,0-13.091,5.878-13.091,13.093c0,7.219,5.872,13.089,13.091,13.089  c7.219,0,13.091-5.87,13.091-13.089c0-0.057-0.014-0.104-0.014-0.151c0-0.047,0.027-0.089,0.027-0.136V29.263l34.557-12.096v33.837  c-1.689-0.791-3.546-1.266-5.53-1.266c-7.218,0-13.089,5.87-13.089,13.09c0,7.211,5.871,13.091,13.089,13.091  c7.221,0,13.093-5.88,13.093-13.091V11.841C80.125,10.608,79.527,9.47,78.529,8.755z M24.901,83.388c-3.052,0-5.53-2.483-5.53-5.534  c0-3.059,2.479-5.538,5.53-5.538c3.051,0,5.537,2.479,5.537,5.538C30.438,80.904,27.952,83.388,24.901,83.388z M67.032,68.357  c-3.052,0-5.544-2.484-5.544-5.529s2.492-5.531,5.544-5.531s5.53,2.486,5.53,5.531S70.084,68.357,67.032,68.357z"/>
</svg>